<!DOCTYPE svg PUBLIC "-//W3C//DTD SVG 20010904//EN" "http://www.w3.org/TR/2001/REC-SVG-20010904/DTD/svg10.dtd">
<svg version="1.0" xmlns="http://www.w3.org/2000/svg" width="1018px" height="324px" viewBox="0 0 10180 3240" preserveAspectRatio="xMidYMid meet">
<g id="layer101" fill="#5abc68" stroke="none">
 <path d="M1448 2840 c-54 -10 -128 -28 -165 -40 -103 -33 -259 -113 -341 -175 -40 -30 -75 -55 -78 -55 -2 0 -4 41 -4 90 0 77 -3 93 -20 110 -38 38 -102 20 -116 -34 -3 -13 -4 -100 -2 -194 3 -148 5 -174 21 -189 16 -16 39 -18 208 -18 188 0 191 0 210 24 25 30 24 62 -1 89 -18 19 -31 22 -100 22 -44 0 -80 4 -80 9 0 14 109 86 195 129 175 87 319 117 529 109 130 -5 165 -10 254 -36 174 -52 312 -133 445 -260 202 -192 308 -415 337 -705 6 -60 15 -117 20 -126 22 -42 104 -31 116 16 9 33 -3 179 -22 269 -50 243 -172 466 -348 638 -277 271 -683 397 -1058 327z"/>
 <path d="M4957 2673 c-15 -15 -5 -23 28 -23 24 0 35 -5 35 -15 0 -9 -9 -15 -25 -15 -22 0 -25 -3 -19 -23 4 -20 0 -26 -27 -37 -42 -18 -74 -86 -64 -139 15 -81 62 -121 143 -121 56 0 100 26 89 53 -6 15 -10 15 -41 2 -49 -21 -70 -19 -101 8 -38 32 -45 101 -15 140 24 30 74 37 110 15 16 -10 22 -10 32 0 11 11 9 17 -11 33 -13 10 -34 19 -47 19 -33 0 -39 18 -10 30 30 11 34 40 10 64 -15 16 -75 22 -87 9z"/>
 <path d="M4343 2573 c-26 -5 -63 -48 -63 -74 0 -52 42 -79 125 -79 55 0 55 0 55 -30 0 -45 -37 -59 -98 -38 -49 18 -62 16 -62 -8 0 -21 61 -44 115 -44 68 0 95 30 95 107 0 32 -3 82 -6 111 -6 46 -9 52 -30 52 -16 0 -24 -6 -24 -17 0 -14 -2 -15 -17 -1 -21 18 -59 26 -90 21z m79 -53 c14 -11 28 -31 30 -45 5 -23 3 -25 -34 -25 -22 0 -48 5 -59 10 -27 15 -25 58 4 70 31 12 31 12 59 -10z"/>
 <path d="M5215 2573 c-30 -7 -65 -44 -65 -69 0 -56 39 -84 119 -84 55 0 66 -9 57 -45 -8 -31 -49 -42 -90 -26 -45 19 -60 18 -64 -2 -5 -23 52 -47 113 -47 35 0 52 6 70 25 27 26 30 54 18 178 -5 62 -8 67 -29 67 -16 0 -24 -6 -24 -17 0 -14 -2 -15 -17 -1 -21 18 -60 27 -88 21z m90 -66 c28 -41 20 -57 -29 -57 -34 0 -48 5 -60 21 -17 25 -11 48 18 58 28 11 54 3 71 -22z"/>
 <path d="M5498 2570 c-42 -8 -68 -26 -68 -47 0 -12 6 -14 28 -8 15 4 52 8 82 9 52 1 55 0 55 -23 0 -20 -9 -27 -55 -43 -91 -30 -113 -76 -61 -129 24 -24 38 -29 76 -29 51 0 109 24 102 43 -2 7 -17 10 -33 8 -72 -9 -107 -6 -118 12 -14 22 9 42 67 58 52 14 79 43 75 81 -5 53 -70 83 -150 68z"/>
 <path d="M5936 2570 c-100 -30 -122 -167 -39 -240 27 -24 43 -30 82 -30 59 0 96 30 106 84 12 62 6 66 -95 66 -99 0 -107 6 -69 55 23 28 16 28 128 13 32 -4 38 17 9 35 -31 20 -86 27 -122 17z m104 -172 c0 -73 -107 -78 -133 -6 -9 24 0 28 70 28 58 0 63 -2 63 -22z"/>
 <path d="M6830 2570 c-7 -4 -32 -61 -56 -126 -31 -87 -40 -122 -32 -131 23 -28 37 -11 69 87 19 55 36 100 39 100 3 0 28 -44 55 -98 30 -59 57 -98 68 -100 31 -6 19 36 -43 153 -60 113 -75 130 -100 115z"/>
 <path d="M7094 2566 c-17 -7 -41 -27 -53 -42 -20 -25 -22 -38 -19 -93 4 -58 7 -66 41 -97 32 -29 44 -34 87 -34 61 0 95 27 105 84 12 62 6 66 -95 66 -90 0 -91 0 -84 23 13 44 35 59 79 54 22 -3 52 -8 68 -12 21 -6 27 -4 27 9 0 38 -102 66 -156 42z m94 -152 c49 -14 14 -74 -44 -74 -28 0 -38 6 -54 32 -10 17 -17 35 -14 40 6 9 79 11 112 2z"/>
 <path d="M7375 2573 c-49 -10 -75 -26 -75 -45 0 -17 4 -19 28 -13 15 4 50 8 77 9 47 1 50 -1 50 -24 0 -20 -9 -28 -50 -43 -65 -24 -85 -43 -85 -82 0 -45 29 -67 95 -73 59 -5 105 14 105 44 0 13 -6 15 -27 9 -68 -17 -99 -17 -113 0 -20 24 -2 46 53 64 67 23 81 41 78 98 -2 37 -78 69 -136 56z"/>
 <path d="M7654 2573 c-47 -9 -59 -38 -56 -133 2 -86 2 -88 -23 -94 -34 -9 -32 -35 4 -42 26 -5 30 -11 33 -43 2 -29 8 -37 26 -39 23 -4 25 2 22 51 -1 23 2 27 23 27 35 0 57 10 57 25 0 15 -22 25 -55 25 -27 0 -35 22 -35 97 0 69 7 83 40 83 36 0 49 19 25 37 -19 13 -23 14 -61 6z"/>
 <path d="M8453 2570 c-60 -13 -93 -60 -93 -130 0 -83 53 -140 129 -140 26 0 56 7 67 15 27 18 46 65 42 101 l-3 29 -93 3 c-91 3 -93 3 -86 25 13 45 35 59 84 54 25 -2 55 -8 68 -12 17 -6 22 -3 22 9 0 33 -77 59 -137 46z m97 -171 c0 -39 -19 -59 -55 -59 -39 0 -75 29 -75 60 0 18 7 20 65 20 59 0 65 -2 65 -21z"/>
 <path d="M9044 2569 c-46 -13 -58 -45 -51 -138 5 -76 4 -80 -16 -83 -29 -4 -30 -42 -1 -46 15 -2 23 -14 30 -40 7 -27 14 -37 29 -37 16 0 21 8 23 38 3 34 6 37 33 37 18 0 32 6 36 16 7 19 -13 34 -48 34 -26 0 -27 2 -31 68 -6 88 3 112 42 112 23 0 30 4 30 20 0 11 -4 20 -9 20 -5 0 -15 2 -23 4 -7 2 -27 0 -44 -5z"/>
 <path d="M9243 2570 c-42 -9 -57 -23 -77 -64 -21 -44 -20 -81 3 -133 23 -50 63 -73 127 -73 39 0 51 5 80 34 31 31 34 39 34 93 0 110 -66 166 -167 143z m94 -67 c11 -17 18 -46 18 -76 0 -39 -5 -53 -24 -68 -54 -44 -111 -11 -119 69 -6 71 14 102 68 102 32 0 43 -5 57 -27z"/>
 <path d="M9518 2570 c-42 -8 -68 -26 -68 -47 0 -12 6 -14 28 -8 15 4 52 8 82 9 52 1 55 0 55 -23 0 -20 -9 -27 -55 -43 -91 -30 -113 -76 -61 -129 24 -24 38 -29 76 -29 53 0 105 23 105 46 0 13 -6 15 -27 10 -80 -19 -111 -19 -121 1 -15 27 -4 39 61 63 61 23 80 45 75 87 -6 48 -74 77 -150 63z"/>
 <path d="M3545 2558 c-3 -7 1 -91 9 -187 10 -122 18 -176 28 -182 7 -5 58 -9 114 -9 100 0 128 8 117 36 -4 11 -28 14 -99 14 l-94 0 0 29 c0 16 -3 42 -6 59 l-6 31 88 3 c81 3 89 5 89 23 0 18 -8 20 -87 23 l-87 3 -5 42 c-3 23 -7 60 -8 82 -3 33 -7 41 -26 43 -12 2 -24 -3 -27 -10z"/>
 <path d="M3846 2463 c9 -137 14 -157 43 -161 l24 -4 -7 109 c-10 152 -12 163 -42 163 l-25 0 7 -107z"/>
 <path d="M3976 2561 c-7 -10 12 -240 20 -253 3 -4 14 -8 25 -8 13 0 19 7 19 21 l0 20 26 -20 c38 -30 98 -28 129 4 21 20 25 33 24 82 0 32 -4 81 -7 108 -6 42 -11 51 -30 53 -23 4 -23 3 -20 -98 2 -91 0 -104 -17 -116 -27 -20 -53 -17 -80 10 -22 23 -29 53 -38 166 -1 27 -7 36 -24 38 -11 2 -24 -1 -27 -7z"/>
 <path d="M4584 2453 c4 -65 9 -126 12 -135 7 -22 42 -24 51 -3 5 14 8 14 29 0 26 -17 86 -20 114 -5 28 15 39 63 34 142 -8 109 -11 120 -37 116 -21 -3 -22 -6 -19 -99 3 -79 1 -99 -13 -112 -19 -19 -33 -21 -68 -8 -31 12 -44 48 -52 144 -6 74 -8 77 -32 77 l-26 0 7 -117z"/>
 <path d="M6295 2558 c-8 -22 22 -359 33 -370 6 -6 18 -8 26 -5 19 8 19 42 3 242 -11 134 -13 140 -35 143 -12 2 -24 -3 -27 -10z"/>
 <path d="M6435 2463 c10 -135 16 -157 43 -161 17 -3 22 2 22 20 0 13 3 18 8 12 23 -34 102 -45 139 -19 29 20 36 62 26 165 -8 82 -9 85 -33 85 l-25 0 4 -102 3 -102 -27 -13 c-55 -25 -105 29 -105 113 0 82 -9 109 -37 109 l-25 0 7 -107z"/>
 <path d="M7766 2562 c-6 -9 11 -226 19 -249 5 -16 42 -17 47 -3 2 6 -1 66 -7 133 -9 114 -11 122 -32 125 -11 2 -24 -1 -27 -6z"/>
 <path d="M7898 2560 c-4 -13 9 -204 17 -237 6 -26 42 -32 51 -8 5 13 8 13 27 0 32 -22 87 -19 114 7 16 15 27 19 31 12 12 -19 50 -34 86 -34 26 0 40 7 56 28 21 25 22 34 16 126 -4 55 -9 103 -12 108 -8 13 -44 9 -45 -4 -1 -7 0 -53 1 -101 2 -92 -7 -117 -40 -117 -10 0 -28 8 -41 19 -19 16 -25 34 -34 112 -8 79 -13 94 -29 97 -28 6 -32 -9 -25 -95 7 -87 -4 -126 -37 -131 -11 -2 -31 6 -44 16 -20 16 -25 34 -34 113 -10 85 -13 94 -32 97 -12 2 -24 -2 -26 -8z"/>
 <path d="M8656 2562 c-6 -9 11 -226 19 -249 6 -18 45 -16 45 2 0 19 9 19 34 0 11 -8 39 -15 62 -15 77 0 95 46 78 209 -6 57 -9 61 -32 61 l-25 0 6 -94 c6 -106 -5 -136 -49 -136 -45 0 -71 39 -79 116 -3 38 -7 78 -8 89 -2 21 -40 34 -51 17z"/>
 <path d="M1605 2418 c-3 -7 -6 -44 -7 -82 l-3 -69 -57 -13 c-112 -26 -214 -98 -256 -181 -21 -42 -42 -127 -42 -173 l0 -30 119 0 118 0 6 52 c10 84 67 141 154 154 106 16 189 -62 180 -169 -7 -82 -56 -127 -202 -186 -241 -98 -328 -196 -329 -371 -1 -71 4 -94 25 -140 14 -30 37 -69 52 -85 33 -40 116 -85 192 -105 l60 -15 3 -88 3 -88 62 3 62 3 3 87 3 87 42 12 c121 32 213 117 247 226 11 36 20 85 20 109 l0 45 -117 -3 -116 -3 -12 -58 c-20 -98 -81 -153 -159 -143 -103 12 -157 127 -106 226 23 46 59 73 142 107 198 80 301 152 344 240 26 51 29 69 29 153 0 78 -4 104 -23 145 -43 94 -118 152 -237 185 l-60 17 -3 81 -3 82 -65 0 c-43 0 -66 -4 -69 -12z"/>
 <path d="M3867 2233 c-14 -14 -6 -42 14 -48 26 -8 54 16 46 39 -6 16 -48 22 -60 9z"/>
 <path d="M7786 2224 c-9 -22 12 -46 38 -42 15 2 21 10 21 28 0 20 -6 26 -26 28 -18 2 -29 -3 -33 -14z"/>
 <path d="M6337 1786 c-66 -18 -127 -63 -157 -116 l-25 -45 -3 -414 c-3 -480 -3 -481 78 -554 77 -69 134 -81 350 -73 96 3 223 9 283 13 l107 6 0 119 0 118 -229 0 c-235 0 -283 6 -301 40 -6 10 -10 54 -10 98 l0 79 113 6 c61 4 165 7 230 7 l117 0 0 114 0 114 -230 7 -230 7 0 84 c0 73 3 86 24 111 l24 28 246 3 246 3 0 114 0 114 -32 6 c-54 9 -356 25 -458 24 -52 0 -117 -6 -143 -13z"/>
 <path d="M8370 1791 c-57 -11 -129 -51 -155 -85 -53 -70 -55 -87 -55 -512 0 -369 1 -397 20 -447 24 -63 67 -108 135 -139 46 -21 63 -23 220 -22 94 0 232 4 308 8 l137 8 0 119 0 119 -229 0 c-143 0 -240 4 -260 11 -41 14 -51 41 -51 133 l0 73 113 6 c61 4 165 7 230 7 l117 0 0 114 0 114 -231 7 -231 7 4 89 c5 139 -7 133 293 137 l245 4 0 113 0 113 -27 6 c-93 19 -511 31 -583 17z"/>
 <path d="M3540 1302 c0 -566 0 -566 79 -643 74 -72 133 -84 369 -76 103 4 229 10 280 13 l92 7 0 118 0 119 -229 0 c-136 0 -240 4 -259 11 -40 14 -52 50 -52 154 l0 82 61 7 c34 3 114 6 178 6 64 0 140 3 169 6 l52 7 0 107 0 107 -112 6 c-62 4 -166 7 -230 7 l-118 0 0 225 0 225 -140 0 -140 0 0 -488z"/>
 <path d="M4500 1185 l0 -605 145 0 145 0 0 605 0 605 -145 0 -145 0 0 -605z"/>
 <path d="M4990 1185 l0 -605 109 0 108 0 229 360 229 360 3 -360 2 -360 145 0 145 0 0 605 0 606 -117 -3 -116 -3 -231 -362 -231 -363 -3 365 -2 365 -135 0 -135 0 0 -605z"/>
 <path d="M7130 1184 l0 -605 313 3 c302 3 314 4 371 27 84 33 149 101 173 177 14 48 18 92 18 229 -1 153 -3 176 -24 228 -64 161 -208 220 -458 186 -43 -5 -86 -12 -95 -15 -17 -5 -18 8 -18 185 l0 191 -140 0 -140 0 0 -606z m546 -13 c20 -12 34 -32 42 -58 17 -57 15 -165 -4 -213 -24 -60 -52 -70 -189 -70 l-115 0 0 180 0 180 118 0 c96 0 122 -3 148 -19z"/>
 <path d="M463 1674 c-25 -25 -26 -27 -19 -130 27 -404 260 -776 616 -984 86 -50 224 -104 335 -131 129 -32 389 -32 523 -1 165 38 373 134 482 224 19 15 38 28 42 28 5 0 8 -42 8 -94 0 -100 7 -117 51 -131 14 -5 31 0 48 13 l26 19 3 194 c3 188 2 195 -19 212 -18 15 -45 17 -203 17 -206 0 -226 -6 -226 -64 0 -52 28 -70 116 -74 41 -3 74 -7 74 -9 0 -17 -150 -106 -243 -144 -278 -115 -626 -105 -885 25 -366 184 -610 563 -612 949 0 48 -4 62 -25 82 -31 32 -59 32 -92 -1z"/>
 </g>

</svg>